<svg width="1041" height="153" viewBox="0 0 1041 153" fill="none" xmlns="http://www.w3.org/2000/svg">
<path d="M229.238 48.6158L240.373 6.9502H131.896L171.71 48.6158H229.238ZM243.072 104.282H214.392L225.527 62.6168H167.998L149.441 131.947L160.069 145.948H275.126L293.178 131.947L326.581 6.9502H269.221L243.072 104.282Z" fill="#2B2A2A"/>
<path d="M450.073 145.948L483.645 20.9509L473.017 7.11865H357.96L339.908 20.9509L306.336 145.948H363.864L389.845 48.7842H418.693L392.544 145.948H450.073Z" fill="#2B2A2A"/>
<path d="M467.28 145.948H524.809L562.093 7.11865H504.564L467.28 145.948Z" fill="#2B2A2A"/>
<path d="M707.686 62.6165L718.82 20.9509L708.192 7.11865H593.135L574.915 20.9509L545.223 132.115L555.851 145.948H670.908L688.959 132.115L700.263 90.4498H642.734L639.023 104.282H610.174L625.02 48.7842H653.869L650.157 62.6165H707.686Z" fill="#2B2A2A"/>
<path d="M846.192 145.948L879.764 20.9509L869.136 7.11865H754.079L736.027 20.9509L702.455 145.948H759.983L771.118 104.282H799.967L788.663 145.948H846.192ZM778.541 76.4488L785.964 48.7842H814.813L807.39 76.4488H778.541Z" fill="#2B2A2A"/>
<path d="M1007.14 145.948L1022.15 90.4498L1011.35 76.4488L1029.57 62.6165L1040.71 20.9509L1030.08 7.11865H900.684L863.4 145.948H920.929L932.063 104.282H960.912L949.609 145.948H1007.14ZM972.047 62.6165H943.198L946.909 48.7842H975.758L972.047 62.6165Z" fill="#2B2A2A"/>
<path fill-rule="evenodd" clip-rule="evenodd" d="M49.1537 1.445e-05C32.5536 0.0132944 17.0799 8.39669 8.00383 22.2944C-1.07221 36.192 -2.52603 53.7293 4.13732 68.9316L46.4785 151.18C46.975 152.229 48.0316 152.897 49.1922 152.897C50.3527 152.897 51.4093 152.229 51.9058 151.18L94.247 68.9316C100.916 53.7168 99.4538 36.1641 90.3593 22.2621C81.265 8.36013 65.7674 -0.0126957 49.1537 1.445e-05ZM49.1537 88.7913C33.0307 88.7913 18.4956 79.0791 12.3274 64.1843C6.15929 49.2894 9.57295 32.146 20.9764 20.7494C32.3798 9.35274 49.5267 5.94775 64.4202 12.1223C79.3137 18.2971 89.0198 32.8353 89.0122 48.9565C89.0016 70.9597 71.1594 88.7913 49.1537 88.7913ZM52.0791 59.8292V41.0665C52.0791 36.8906 47.5947 33.3689 42.2829 33.3689C36.9709 33.3689 32.4866 36.8905 32.4866 41.0665V57.9049L24.7882 59.8292V41.0665C24.7882 32.5799 32.6406 25.6713 42.2829 25.6713C51.9251 25.6713 59.7775 32.5607 59.7775 41.0665V57.9049L52.0791 59.8292ZM55.9668 64.544C61.2787 64.544 65.763 61.0224 65.763 56.8464V40.008L73.4614 38.0836V56.8464C73.4614 65.333 65.609 72.2415 55.9668 72.2415C46.3245 72.2415 38.4722 65.3522 38.4722 56.8464V41.9324L46.1706 40.008V56.8464C46.1706 61.0031 50.6549 64.544 55.9668 64.544Z" fill="#2B2A2A"/>
</svg>
