<svg width="197" height="27" viewBox="0 0 197 27" fill="none" xmlns="http://www.w3.org/2000/svg">
<path d="M34.2676 16.0607C35.581 15.9523 36.8251 15.9891 38 16.1711C37.8358 18.6403 37.1559 20.7538 35.9602 22.5115C34.648 24.4054 33.124 25.6831 31.3879 26.3445C26.4758 28.2162 21.389 25.9922 19 20.7899C19.8772 20.8219 20.6221 20.7628 21.2346 20.6127C21.6916 20.5016 22.1615 20.1896 22.6442 19.6769C24.1548 21.9807 26.1046 23.0263 28.4936 22.8137C30.6216 22.6248 32.2707 21.4319 33.4407 19.235C33.448 19.2211 33.4499 19.2065 33.4462 19.1913C33.4376 19.1621 33.437 19.1454 33.4443 19.1412C33.459 19.1065 33.4762 19.0794 33.4958 19.0599C33.5203 19.0363 33.5405 19.0085 33.5564 18.9766C33.973 18.0664 34.21 17.0945 34.2676 16.0607Z" fill="#FF7200"/>
<path d="M17.2822 18C16.994 16.6804 16.9265 15.3637 17.0798 14.0499L19.9155 14C19.9266 13.9997 19.9378 14.0019 19.9481 14.0065C19.9585 14.0111 19.9679 14.018 19.9758 14.0267C19.9837 14.0354 19.9899 14.0458 19.9941 14.0573C19.9982 14.0687 20.0002 14.081 20 14.0934L19.9508 17.8003C19.9503 17.8439 19.9344 17.8855 19.9065 17.9163C19.8786 17.9472 19.8409 17.9647 19.8015 17.9653L17.2822 18Z" fill="#FF7200"/>
<path d="M14 14C13.9979 14.5473 13.9745 15.087 13.9298 15.619C13.7608 17.6366 13.0654 19.0003 11.8437 19.7101C11.2919 20.0321 10.6124 19.9976 10 19.9999L10.0016 17.1391C11.0542 17.2265 11.8373 17.1184 11.9681 15.3085C12.0117 14.706 12.0197 14.2813 11.992 14.0345L14 14Z" fill="#FF7200"/>
<path d="M15.9276 12.5529L13.4883 12.5924L13.4558 7.65492C13.4558 7.49071 13.3671 7.40234 13.1895 7.38981C12.039 7.30708 10.942 7.3052 9.89851 7.38417C9.83439 7.3894 9.77481 7.41677 9.73179 7.46074C9.68878 7.50472 9.66554 7.56202 9.66678 7.62107C9.68169 8.76425 9.66746 9.94629 9.62409 11.1672C9.55701 12.9816 8.14222 14.1135 6.24566 14.1323C5.1019 14.1448 3.94256 14.1567 2.76763 14.168C2.71045 14.1685 2.65573 14.1898 2.61511 14.2274C2.57449 14.265 2.55117 14.3158 2.55012 14.3692L2.51557 17.4114C2.51501 17.4431 2.52137 17.4745 2.53428 17.5038C2.54718 17.5332 2.56636 17.5598 2.59066 17.5821C2.61496 17.6044 2.64388 17.6219 2.67569 17.6336C2.7075 17.6453 2.74153 17.651 2.77576 17.6502L8.39834 17.5092L8.37802 19.8256C5.9333 19.9522 4.17768 20.0099 3.11116 19.9986C1.44024 19.9817 0.090495 19.3199 0.025447 17.6182C-0.00978736 16.6593 -0.0084321 15.4547 0.0295126 14.0044C0.0681348 12.583 1.31421 11.9588 2.68835 11.8629C3.65729 11.7964 4.74753 11.7845 5.95904 11.8271C6.41235 11.8441 7.09332 11.7914 7.10551 11.2311C7.13804 9.89991 7.15837 8.60443 7.1665 7.34468C7.17463 5.89502 8.22556 5.25199 9.63222 5.10157C10.8858 4.9687 12.1359 4.96619 13.3826 5.09405C15.0021 5.25825 15.8612 6.09746 15.9602 7.61167C16.0225 8.55805 16.0117 10.2051 15.9276 12.5529Z" fill="#FF7200"/>
<path d="M22.7323 13C22.0024 12.5172 21.2019 12.3125 20.3308 12.3859C19.9132 12.4199 19.4696 12.4206 19 12.388C19.3073 11.3298 19.7621 10.3682 20.3643 9.50317C22.2416 6.80608 24.7341 5.31608 27.8419 5.03318C29.8734 4.84753 32.0778 5.44733 33.8529 6.67143C35.7488 7.97577 37.1286 9.79899 37.9922 12.1411C37.9989 12.1595 38.0013 12.1794 37.9994 12.1991C37.9974 12.2188 37.9912 12.2377 37.9811 12.2542C37.971 12.2706 37.9575 12.2842 37.9416 12.2936C37.9258 12.303 37.908 12.3081 37.89 12.3084L34.1336 12.3798C34.0776 12.3811 34.0221 12.3671 33.9721 12.3389C33.9222 12.3108 33.8793 12.2695 33.8473 12.2186C33.1658 11.1401 32.3151 10.3349 31.2953 9.80307C28.5426 8.36476 25.5129 9.1849 23.5352 11.7045C23.3184 11.982 23.0507 12.4138 22.7323 13Z" fill="#FF7200"/>
<path d="M18.3889 11.0163C18.8712 11.0485 19.3267 11.0478 19.7555 11.0143C20.6501 10.942 21.4721 11.1436 22.2216 11.6191C22.7318 12.1816 22.9888 12.8111 22.9927 13.5076C23.0054 15.4711 23.0016 16.7864 22.9812 17.4534C22.9685 17.8726 22.859 18.263 22.6529 18.6247C22.1516 19.1189 21.6636 19.4196 21.189 19.5267C20.5527 19.6714 19.7791 19.7283 18.868 19.6975C18.345 19.7189 17.8297 19.729 17.322 19.7276C16.9154 19.7256 16.3619 19.7678 16.3371 20.3444C16.2773 21.7561 16.2582 23.1397 16.2798 24.4951C16.3047 26.004 15.2358 26.7513 13.9398 26.9C13.0644 27.0004 12.0865 27.0252 11.0062 26.9743C9.77316 26.9141 8.58024 26.5283 8.17369 25.1601C8.09734 24.9043 8.05662 24.5193 8.05153 24.0049C8.03626 22.2557 8.01909 20.5453 8 18.8738L8.01909 16.3986C8.01018 15.9218 8.01654 15.5113 8.03817 15.1671C8.15078 13.387 9.24446 11.7095 10.926 11.3177C11.5444 11.175 12.159 11.1851 12.7984 11.1449L15.0888 11.1027L18.3889 11.0163ZM17.824 13.5558L15.1423 13.612L12.7392 13.6422C12.1857 13.6904 11.5234 13.61 11.0901 13.9255C10.361 14.4559 10.3229 15.4845 10.3572 16.3544L10.3553 18.8537L10.3744 24.1436C10.3744 24.3083 10.452 24.3994 10.6073 24.4168C11.6176 24.528 12.6941 24.5233 13.8367 24.4027C13.859 24.4007 13.8797 24.3898 13.8946 24.3722C13.9095 24.3547 13.9175 24.3318 13.9169 24.3083C13.9042 23.3614 13.9048 22.3434 13.9188 21.2545C13.9328 20.1388 14.0709 19.3365 14.333 18.8477C15.0984 17.4132 16.5528 17.1922 18.0206 17.2123L20.4675 17.1801C20.5058 17.1796 20.5424 17.1634 20.5695 17.1348C20.5966 17.1063 20.612 17.0678 20.6125 17.0275L20.6603 13.596C20.6605 13.5846 20.6586 13.5732 20.6545 13.5626C20.6505 13.552 20.6445 13.5423 20.6368 13.5343C20.6291 13.5262 20.62 13.5198 20.6099 13.5156C20.5998 13.5114 20.589 13.5093 20.5782 13.5096L17.824 13.5558Z" fill="#FBFBFB"/>
<path d="M35 16.0233C34.9421 16.6827 34.7039 17.3026 34.2853 17.8831C34.2693 17.9035 34.249 17.9212 34.2244 17.9363C34.2047 17.9487 34.1875 17.966 34.1727 17.9882C33.0745 18.0006 31.9751 18.0032 30.8745 17.9961C30.3279 17.9926 29.9401 17.9465 29.7111 17.8579C28.4701 17.3806 28.9521 16.0353 30.3944 16.01C31.3276 15.9932 32.8628 15.9976 35 16.0233Z" fill="#FBFBFB"/>
<path d="M38.2426 16C38.7432 16.3817 38.9941 16.7824 38.9955 17.2021C38.9995 19.8647 39.0008 22.5306 38.9995 25.1997C38.9995 25.7047 38.9329 26.068 38.7997 26.2897C38.3314 27.0708 37.2354 27.2301 36.5289 26.6557C36.1723 26.3671 35.996 25.9198 36.0001 25.3139C36.0068 24.2501 36.0075 23.1405 36.0021 21.985C37.3154 20.3257 38.0623 18.3308 38.2426 16Z" fill="#FBFBFB"/>
<path d="M124.731 5.45022C124.663 5.42003 124.647 5.43549 124.684 5.49659L128.003 10.8738C128.028 10.9148 128.017 10.9457 127.972 10.9665L127.922 10.9892C127.877 11.0093 127.838 11.0014 127.808 10.9654C125.733 8.55952 123.8 6.10724 122.007 3.60859C122.002 3.60232 122 3.59483 122 3.58716C122 3.5795 122.003 3.57205 122.008 3.56586C122.013 3.55967 122.02 3.55506 122.028 3.55266C122.036 3.55027 122.044 3.55022 122.052 3.55252C123.164 3.84795 124.256 4.09487 125.326 4.48735C125.731 4.63687 126.164 4.74829 126.626 4.82161C128.306 5.08794 130.065 5.04804 131.783 4.75692C134.219 4.34359 136.629 3.6456 139.013 2.66297C139.672 2.39197 140.295 2.1393 140.882 1.90496C143.045 1.04344 145.324 0.491385 147.68 0.221825C150.106 -0.0563621 152.595 -0.0728975 155.149 0.172223C159.194 0.560391 163.1 1.45677 166.868 2.86136C167.896 3.2445 168.915 3.68011 169.923 4.1682C169.972 4.1912 169.997 4.22642 170 4.27386C170.001 4.30046 169.995 4.3249 169.98 4.34718C169.958 4.37881 169.927 4.38852 169.889 4.3763C164.73 2.79343 159.637 1.88484 154.608 1.6505C153.07 1.57861 151.374 1.61671 149.519 1.76479C147.251 1.94594 145.06 2.38191 142.946 3.0727C141.679 3.48675 140.426 4.04743 139.168 4.51C135.854 5.72949 132.269 6.54464 128.759 6.35811C127.297 6.28047 125.954 5.97785 124.731 5.45022Z" fill="#FF7300"/>
<path d="M152.02 6.19272C153.369 6.47812 154.708 6.68198 156.107 6.78332C161.094 7.1421 166.074 6.93708 171.016 6.6179C171.807 6.56665 172.603 6.50453 173.402 6.43153C175.036 6.2832 176.699 6.16244 178.392 6.06925C180.392 5.95819 182.455 5.98072 184.581 6.13681C187.623 6.3593 190.629 6.95805 193.333 8.19166C194.504 8.72673 195.525 9.41402 196.396 10.2535C196.617 10.4663 196.807 10.6931 196.965 10.9338C197.019 11.0153 197.011 11.0216 196.941 10.9524C196.131 10.1557 195.174 9.51924 194.068 9.04319C192.825 8.50735 191.57 8.10973 190.302 7.85035C188.974 7.57777 187.686 7.391 186.436 7.29005C183.814 7.07881 181.167 7.06522 178.494 7.24927C176.755 7.36887 175.064 7.49623 173.423 7.63136C171.511 7.789 169.371 7.89229 167.003 7.94121C163.873 8.00567 160.87 7.87132 157.996 7.53817C156.108 7.31994 154.304 6.95961 152.584 6.45715C152.393 6.40124 152.192 6.29989 152.005 6.21369C152.001 6.21214 151.999 6.20864 152.001 6.20321C152.004 6.19389 152.01 6.19039 152.02 6.19272Z" fill="#FF7300"/>
<path d="M58.9175 20.4502C58.9664 20.4518 58.9799 20.431 58.958 20.3876L56.2148 15.0366C56.2072 15.0219 56.1962 15.0093 56.1826 14.9999C56.169 14.9905 56.1532 14.9845 56.1367 14.9825C56.1202 14.9805 56.1035 14.9826 56.088 14.9885C56.0725 14.9945 56.0587 15.0041 56.0479 15.0166L48.2253 23.7923C48.1681 23.8561 48.098 23.9071 48.0195 23.9421C47.9411 23.977 47.8561 23.995 47.7702 23.995L43.0954 24C43.0771 24.0003 43.0591 23.9954 43.0436 23.9857C43.0281 23.976 43.0158 23.962 43.0083 23.9455C43.0008 23.929 42.9983 23.9107 43.0012 23.8928C43.0041 23.8749 43.0122 23.8582 43.0246 23.8449C46.5423 19.929 50.2067 15.8371 54.0177 11.5693C54.6573 10.8564 55.5473 10.1809 56.5359 10.0433C58.2652 9.80566 59.0996 10.5612 59.8125 11.9371C61.8739 15.928 63.9286 19.8931 65.9765 23.8324C66.0271 23.9324 65.9959 23.9825 65.883 23.9825L50.1064 23.9875C50.0838 23.9875 50.0618 23.981 50.0429 23.9688C50.024 23.9566 50.0091 23.9393 50 23.9189C49.9908 23.8985 49.9879 23.8759 49.9916 23.8539C49.9952 23.8318 50.0052 23.8113 50.0204 23.7948L52.9659 20.5752C53.0056 20.5312 53.0545 20.4959 53.1094 20.4717C53.1643 20.4476 53.224 20.4351 53.2845 20.4351L58.9175 20.4502Z" fill="#FBFBFB"/>
<path d="M122.205 10.2841C125.437 10.7419 127.862 12.2755 127.991 15.4953C128.183 20.2289 125.151 22.8677 120.256 23.6505C117.842 24.0362 115.373 24.1026 112.85 23.8499C109.875 23.5521 106.778 22.5034 106.181 19.6603C105.76 17.6549 106.074 15.7652 107.123 13.9913C109.632 9.745 117.78 9.65639 122.205 10.2841ZM111.621 14.6583C110.649 15.4805 110.56 17.2775 110.698 18.368C110.86 19.6308 112.202 20.1649 113.412 20.2954C114.83 20.448 116.339 20.4907 117.939 20.4234C120.032 20.3323 122.713 20.1748 123.169 18.0061C123.644 15.7562 123.461 13.9346 120.448 13.6836C118.532 13.5244 116.633 13.5186 114.751 13.6663C113.673 13.75 112.431 13.9716 111.621 14.6583Z" fill="#FBFBFB"/>
<path d="M162.583 20.303L159.78 15.0187C159.773 15.006 159.764 14.9952 159.751 14.9871C159.739 14.9789 159.725 14.9738 159.71 14.9721C159.695 14.9703 159.679 14.9721 159.665 14.9772C159.651 14.9823 159.638 14.9905 159.627 15.0012L151.414 23.8275C151.306 23.9425 151.172 24 151.01 24L146.108 23.9975C146.088 23.9976 146.067 23.9919 146.05 23.9813C146.032 23.9707 146.018 23.9555 146.01 23.9375C146.001 23.9196 145.998 23.8997 146.001 23.8801C146.004 23.8606 146.013 23.8424 146.027 23.8275C149.808 19.7931 153.601 15.7361 157.407 11.6567C158.074 10.9443 158.944 10.2518 159.952 10.0769C161.934 9.72941 162.815 10.5868 163.633 12.1041C165.928 16.3769 168.047 20.2988 169.99 23.87C169.997 23.8833 170.001 23.8982 170 23.9131C169.999 23.9281 169.995 23.9427 169.987 23.9554C169.978 23.9682 169.967 23.9788 169.953 23.9862C169.939 23.9936 169.924 23.9974 169.908 23.9975L153.336 23.99C153.318 23.9898 153.3 23.9847 153.284 23.9752C153.269 23.9658 153.257 23.9525 153.249 23.9369C153.242 23.9212 153.239 23.904 153.242 23.8873C153.245 23.8705 153.253 23.855 153.265 23.8425L156.373 20.588C156.426 20.5329 156.49 20.4889 156.561 20.4587C156.632 20.4286 156.709 20.413 156.787 20.413L162.504 20.4255C162.599 20.4255 162.625 20.3847 162.583 20.303Z" fill="#FF7300"/>
<path d="M72.2043 18.0412C71.9875 19.296 72.6575 19.9659 73.793 20.1809C75.5668 20.5142 77.3122 20.5367 79.0292 20.2484C80.8591 19.9434 81.3415 18.8011 81.6217 17.0439C81.9823 14.7709 82.3746 12.4763 82.7986 10.16C82.8165 10.06 82.8749 10.01 82.974 10.01L86.8141 10C86.8414 9.99989 86.8683 10.006 86.893 10.0178C86.9177 10.0296 86.9396 10.0469 86.9571 10.0684C86.9745 10.0899 86.9872 10.115 86.994 10.1421C87.0009 10.1692 87.0019 10.1975 86.9968 10.225C86.6281 12.1947 86.2504 14.3568 85.8638 16.7114C85.6169 18.2162 85.3229 19.3027 84.9818 19.9709C83.9535 21.9781 82.0043 23.2029 79.9015 23.6128C76.9744 24.1861 74.1942 24.1228 71.5611 23.4229C69.5095 22.878 68.3375 21.689 68.0451 19.8559C67.9233 19.0811 68.0483 17.7304 68.4203 15.8041C68.7777 13.9577 69.1009 12.078 69.3901 10.165C69.3964 10.1246 69.4166 10.0878 69.447 10.0613C69.4773 10.0347 69.5159 10.0201 69.5558 10.02H73.4933C73.5074 10.0202 73.5214 10.0235 73.5342 10.0296C73.547 10.0358 73.5583 10.0446 73.5673 10.0556C73.5764 10.0665 73.5829 10.0793 73.5866 10.093C73.5902 10.1067 73.5908 10.1211 73.5883 10.135C73.1432 12.6413 72.6819 15.2767 72.2043 18.0412Z" fill="#FBFBFB"/>
<path d="M96.6581 13.6507L90.0883 13.6685C90.071 13.6687 90.0541 13.664 90.0397 13.6549C90.0252 13.6459 90.0139 13.6329 90.0071 13.6177C90.0003 13.6024 89.9983 13.5856 90.0015 13.5693C90.0046 13.553 90.0127 13.538 90.0247 13.5261L93.499 10.0254C93.5072 10.0173 93.5171 10.0108 93.5281 10.0065C93.539 10.0021 93.5507 9.99989 93.5625 10L109.912 10.0051C109.929 10.0049 109.946 10.0097 109.96 10.0187C109.975 10.0278 109.986 10.0407 109.993 10.056C110 10.0712 110.002 10.088 109.999 10.1043C109.995 10.1206 109.987 10.1357 109.975 10.1476L106.52 13.6329C106.511 13.6411 106.501 13.6475 106.49 13.6519C106.48 13.6563 106.468 13.6585 106.456 13.6584L101.388 13.6558C101.367 13.6555 101.347 13.6622 101.331 13.6748C101.315 13.6874 101.304 13.705 101.3 13.7245L99.4148 23.9313C99.411 23.9508 99.4002 23.9684 99.3842 23.981C99.3682 23.9936 99.3481 24.0003 99.3274 24L94.9607 23.9898C94.948 23.9896 94.9355 23.9868 94.924 23.9815C94.9125 23.9762 94.9024 23.9686 94.8944 23.9591C94.8863 23.9497 94.8805 23.9386 94.8773 23.9268C94.8741 23.915 94.8737 23.9026 94.876 23.8906L96.7429 13.75C96.7452 13.7379 96.7447 13.7256 96.7416 13.7137C96.7384 13.7019 96.7326 13.6909 96.7245 13.6814C96.7164 13.672 96.7063 13.6643 96.6948 13.659C96.6834 13.6537 96.6709 13.6509 96.6581 13.6507Z" fill="#FBFBFB"/>
<path d="M148.86 10C149.017 10 149.042 10.0618 148.935 10.1854L146.017 13.5413C145.943 13.626 145.852 13.6683 145.744 13.6683C143.518 13.6632 141.407 13.6632 139.411 13.6683C137.55 13.6708 135.598 14.748 135.137 16.7599C134.897 17.7998 135.125 18.6821 135.821 19.407C136.784 20.413 138.049 20.3673 139.308 20.3622C142.007 20.3503 144.629 20.3486 147.173 20.3571C147.192 20.3571 147.21 20.363 147.226 20.3741C147.242 20.3852 147.254 20.4011 147.261 20.4197C147.269 20.4384 147.271 20.4589 147.268 20.479C147.265 20.499 147.256 20.5176 147.243 20.5324L144.334 23.8527C144.293 23.8992 144.244 23.9363 144.19 23.9616C144.135 23.987 144.076 24 144.017 24C141.923 23.9966 139.885 23.9941 137.903 23.9924C135.586 23.9898 133.309 23.2099 131.962 21.1446C130.181 18.4112 131.006 14.5854 133.339 12.4845C135.152 10.8553 137.28 10.0339 139.724 10.0203C142.55 10.0068 145.595 10 148.86 10Z" fill="#FF7300"/>
<path d="M189.537 19.5209C190.825 20.9173 192.022 22.3799 193.128 23.9085C193.134 23.916 193.137 23.925 193.138 23.9344C193.139 23.9438 193.137 23.9533 193.133 23.9617C193.128 23.9702 193.122 23.9773 193.114 23.9822C193.105 23.9872 193.096 23.9898 193.086 23.9898L187.475 24C187.414 24 187.355 23.9854 187.301 23.9575C187.248 23.9295 187.203 23.8891 187.169 23.8399L184.864 20.4258C184.816 20.3547 184.748 20.3191 184.66 20.3191L178.187 20.3242C178.097 20.3242 178.044 20.3682 178.029 20.4564L177.421 23.8856C177.411 23.9466 177.374 23.978 177.31 23.9797L173.152 23.9949C173.033 23.9949 172.984 23.9373 173.005 23.8221L174.223 16.9635C174.242 16.8636 174.302 16.8136 174.404 16.8136C178.233 16.8068 182.328 16.8051 186.688 16.8085C187.666 16.8085 189.03 16.4145 189.281 15.357C189.601 14.0071 188.225 13.6589 187.182 13.6589C182.901 13.6656 178.841 13.6665 175.002 13.6614C174.862 13.6614 174.841 13.6114 174.937 13.5114L178.22 10.1432C178.296 10.0669 178.389 10.0279 178.497 10.0262C181.616 9.99743 184.725 9.99234 187.827 10.011C190.473 10.0262 194.041 10.9744 194 14.2385C193.966 16.839 192.129 18.8803 189.581 19.3912C189.567 19.394 189.554 19.4003 189.543 19.4095C189.533 19.4186 189.525 19.4304 189.521 19.4435C189.516 19.4567 189.515 19.4708 189.518 19.4843C189.521 19.4979 189.527 19.5105 189.537 19.5209Z" fill="#FF7300"/>
</svg>
