<svg width="1184" height="166" viewBox="0 0 1184 166" fill="none" xmlns="http://www.w3.org/2000/svg">
<path d="M210.231 97.3365C218.595 96.7354 226.518 96.9396 234 97.949C232.955 111.642 228.624 123.362 221.009 133.109C212.653 143.612 202.947 150.697 191.892 154.365C160.609 164.744 128.214 152.412 113 123.562C118.586 123.739 123.33 123.412 127.231 122.58C130.141 121.963 133.133 120.233 136.208 117.39C145.828 130.166 158.245 135.964 173.459 134.785C187.011 133.737 197.513 127.122 204.964 114.94C205.011 114.863 205.023 114.782 204.999 114.697C204.945 114.535 204.941 114.443 204.988 114.42C205.081 114.227 205.19 114.077 205.315 113.969C205.471 113.838 205.6 113.684 205.702 113.506C208.354 108.459 209.864 103.069 210.231 97.3365Z" fill="#FF7200"/>
<path d="M108.787 110C106.962 102.412 106.535 94.8415 107.506 87.2872L125.465 87.0002C125.535 86.9984 125.606 87.0112 125.671 87.0375C125.737 87.0639 125.797 87.1033 125.847 87.1535C125.897 87.2037 125.936 87.2635 125.963 87.3294C125.989 87.3953 126.002 87.4658 126 87.5368L125.689 108.852C125.685 109.102 125.585 109.342 125.408 109.519C125.231 109.696 124.993 109.797 124.743 109.8L108.787 110Z" fill="#FF7200"/>
<path d="M89 88C88.9851 90.8278 88.8214 93.6161 88.5088 96.3647C87.3254 106.789 82.4577 113.835 73.9059 117.502C70.0431 119.166 65.2871 118.987 61 118.999L61.0112 104.219C68.3796 104.67 73.8612 104.112 74.7767 94.7607C75.0819 91.6477 75.1377 89.4535 74.9442 88.1782L89 88Z" fill="#FF7200"/>
<path d="M91.584 73.828L77.558 74.0729L77.371 43.4605C77.371 42.4424 76.8606 41.8945 75.8398 41.8168C69.2242 41.3039 62.9164 41.2922 56.9164 41.7818C56.5478 41.8143 56.2051 41.984 55.9578 42.2566C55.7105 42.5293 55.5769 42.8845 55.584 43.2507C55.6697 50.3384 55.5879 57.667 55.3385 65.2365C54.9528 76.4859 46.8177 83.5037 35.9126 83.6203C29.3359 83.698 22.6697 83.7718 15.9139 83.8418C15.5851 83.8448 15.2705 83.9768 15.0369 84.2098C14.8033 84.4427 14.6693 84.7582 14.6632 85.0891L14.4645 103.951C14.4613 104.147 14.4979 104.342 14.5721 104.524C14.6463 104.706 14.7566 104.871 14.8963 105.009C15.036 105.147 15.2023 105.256 15.3852 105.328C15.5681 105.401 15.7638 105.436 15.9606 105.431L48.2905 104.557L48.1736 118.919C34.1165 119.704 24.0216 120.061 17.8892 119.991C8.28138 119.886 0.520346 115.783 0.14632 105.233C-0.0562773 99.2878 -0.0484846 91.8193 0.169697 82.8276C0.391775 74.0146 7.55671 70.1443 15.458 69.5498C21.0294 69.1379 27.2983 69.0641 34.2645 69.3283C36.871 69.4332 40.7866 69.1068 40.8567 65.6329C41.0437 57.3794 41.1606 49.3475 41.2074 41.537C41.2541 32.5492 47.297 28.5623 55.3853 27.6297C62.5931 26.8059 69.7814 26.7904 76.9502 27.5831C86.2619 28.6012 91.2022 33.8043 91.771 43.1924C92.1294 49.0599 92.0671 59.2718 91.584 73.828Z" fill="#FF7200"/>
<path d="M135.376 76C130.805 73.2237 125.791 72.0467 120.335 72.469C117.72 72.6645 114.941 72.6684 112 72.4807C113.925 66.3963 116.773 60.8671 120.545 55.8932C132.303 40.385 147.914 31.8175 167.378 30.1908C180.102 29.1233 193.909 32.5722 205.026 39.6107C216.9 47.1107 225.542 57.5942 230.951 71.0613C230.993 71.1673 231.008 71.2818 230.996 71.3951C230.984 71.5083 230.945 71.6169 230.882 71.7115C230.819 71.8061 230.734 71.8839 230.634 71.9382C230.535 71.9925 230.424 72.0217 230.311 72.0232L206.784 72.4338C206.433 72.4413 206.086 72.3606 205.773 72.1989C205.46 72.0371 205.191 71.7994 204.991 71.5071C200.723 65.3053 195.395 60.6755 189.008 57.6177C171.767 49.3474 152.791 54.0632 140.405 68.5509C139.047 70.1463 137.37 72.6293 135.376 76Z" fill="#FF7200"/>
<path d="M111.104 72.096C114.126 72.2848 116.981 72.2809 119.668 72.0842C125.274 71.6592 130.425 72.8435 135.122 75.6369C138.319 78.9418 139.93 82.6402 139.954 86.732C140.034 98.2677 140.01 105.995 139.882 109.914C139.802 112.377 139.117 114.67 137.825 116.795C134.683 119.698 131.625 121.465 128.651 122.095C124.664 122.944 119.816 123.279 114.106 123.098C110.829 123.224 107.599 123.283 104.418 123.275C101.87 123.263 98.4013 123.511 98.2458 126.898C97.871 135.192 97.7514 143.321 97.887 151.284C98.0425 160.148 91.3443 164.539 83.2228 165.412C77.7366 166.003 71.6086 166.148 64.8386 165.849C57.1118 165.495 49.6362 163.229 47.0885 155.191C46.61 153.688 46.3548 151.426 46.3229 148.404C46.2273 138.127 46.1196 128.079 46 118.258L46.1196 103.717C46.0638 100.916 46.1037 98.5038 46.2392 96.4815C46.9449 86.0238 53.7986 76.1681 64.3363 73.8664C68.2116 73.0284 72.0631 73.0874 76.0701 72.8514L90.4233 72.6035L111.104 72.096ZM107.563 87.0153L90.7582 87.3458L75.6993 87.5228C72.2306 87.8061 68.0801 87.334 65.3649 89.1871C60.7958 92.3031 60.5566 98.3464 60.7719 103.457L60.7599 118.14L60.8795 149.218C60.8795 150.186 61.3659 150.721 62.3388 150.824C68.6702 151.477 75.4162 151.449 82.5769 150.741C82.7164 150.729 82.8461 150.665 82.9395 150.562C83.0328 150.459 83.0828 150.324 83.0792 150.186C82.9995 144.623 83.0035 138.643 83.0912 132.245C83.1789 125.691 84.0441 120.977 85.6867 118.105C90.4831 109.678 99.5974 108.379 108.795 108.497L124.13 108.308C124.37 108.305 124.599 108.21 124.769 108.042C124.939 107.875 125.035 107.648 125.039 107.411L125.338 87.2513C125.339 87.1842 125.327 87.1175 125.302 87.0552C125.277 86.9929 125.239 86.9363 125.191 86.8889C125.143 86.8414 125.085 86.8041 125.022 86.7791C124.959 86.7542 124.891 86.7422 124.823 86.7438L107.563 87.0153Z" fill="#383837"/>
<path d="M210 97.198C209.643 102.803 208.174 108.072 205.593 113.007C205.494 113.18 205.369 113.331 205.217 113.459C205.096 113.564 204.989 113.711 204.898 113.899C198.126 114.005 191.347 114.027 184.559 113.967C181.189 113.937 178.797 113.545 177.385 112.792C169.732 108.735 172.705 97.2997 181.599 97.085C187.353 96.9419 196.82 96.9795 210 97.198Z" fill="#001954"/>
<path d="M234.455 98C237.459 100.255 238.965 102.623 238.973 105.103C238.997 120.837 239.005 136.59 238.997 152.362C238.997 155.346 238.597 157.493 237.798 158.803C234.988 163.418 228.412 164.36 224.173 160.965C222.034 159.26 220.976 156.617 221 153.036C221.041 146.751 221.045 140.194 221.013 133.366C228.893 123.561 233.374 111.773 234.455 98Z" fill="#001954"/>
<path d="M748.841 36.6651C748.419 36.462 748.322 36.566 748.55 36.9771L769.016 73.151C769.171 73.4266 769.108 73.6345 768.826 73.7748L768.521 73.9271C768.239 74.0625 768.004 74.0093 767.814 73.7675C755.02 57.5822 743.097 41.085 732.045 24.2759C732.015 24.2338 732 24.1834 732 24.1318C732 24.0803 732.017 24.0302 732.048 23.9885C732.078 23.9469 732.121 23.9158 732.17 23.8997C732.219 23.8836 732.272 23.8833 732.322 23.8987C739.18 25.8862 745.914 27.5473 752.511 30.1877C755.005 31.1935 757.677 31.943 760.527 32.4363C770.887 34.2279 781.735 33.9595 792.328 32.0011C807.35 29.2205 822.212 24.525 836.914 17.9145C840.976 16.0914 844.818 14.3916 848.439 12.8152C861.777 7.01953 875.828 3.30568 890.36 1.49227C905.319 -0.379163 920.671 -0.490401 936.417 1.15859C961.36 3.7699 985.449 9.80009 1008.68 19.2492C1015.03 21.8266 1021.31 24.7571 1027.53 28.0406C1027.83 28.1953 1027.98 28.4323 1028 28.7514C1028.01 28.9304 1027.97 29.0948 1027.87 29.2447C1027.74 29.4574 1027.55 29.5227 1027.31 29.4405C995.503 18.7922 964.093 12.6798 933.082 11.1033C923.598 10.6198 913.139 10.8761 901.703 11.8722C887.715 13.0908 874.202 16.0237 861.165 20.6709C853.353 23.4563 845.629 27.2282 837.868 30.34C817.431 38.5438 795.327 44.0276 773.682 42.7727C764.664 42.2505 756.384 40.2146 748.841 36.6651Z" fill="#FF7300"/>
<path d="M912.119 34.1949C920.273 35.9643 928.369 37.2282 936.827 37.8566C966.968 40.081 997.073 38.8099 1026.94 36.831C1031.72 36.5132 1036.53 36.1281 1041.37 35.6755C1051.24 34.7558 1061.29 34.0071 1071.53 33.4293C1083.61 32.7408 1096.08 32.8804 1108.93 33.8482C1127.32 35.2277 1145.49 38.9399 1161.83 46.5883C1168.92 49.9058 1175.09 54.1669 1180.35 59.3718C1181.69 60.691 1182.83 62.097 1183.79 63.5896C1184.11 64.0951 1184.07 64.1336 1183.64 63.7051C1178.75 58.7651 1172.96 54.8193 1166.28 51.8678C1158.77 48.5456 1151.18 46.0804 1143.52 44.4722C1135.49 42.7822 1127.7 41.6242 1120.15 40.9983C1104.3 39.6886 1088.3 39.6044 1072.14 40.7455C1061.63 41.487 1051.41 42.2766 1041.49 43.1144C1029.93 44.0918 1017 44.7322 1002.69 45.0355C983.765 45.4352 965.617 44.6022 948.244 42.5366C936.832 41.1837 925.926 38.9496 915.527 35.8344C914.377 35.4877 913.161 34.8593 912.033 34.3249C912.004 34.3152 911.994 34.2936 912.004 34.2599C912.023 34.2021 912.061 34.1804 912.119 34.1949Z" fill="#FF7300"/>
<path d="M361.273 123.687C361.575 123.697 361.658 123.566 361.523 123.294L344.587 89.6586C344.54 89.5664 344.472 89.4872 344.388 89.4279C344.304 89.3686 344.207 89.331 344.105 89.3186C344.003 89.3061 343.9 89.3192 343.804 89.3566C343.709 89.3939 343.623 89.4544 343.557 89.5328L295.261 144.695C294.908 145.096 294.475 145.416 293.99 145.636C293.506 145.855 292.981 145.969 292.451 145.968L263.589 146C263.476 146.002 263.365 145.971 263.269 145.91C263.173 145.849 263.098 145.761 263.051 145.658C263.005 145.554 262.989 145.439 263.007 145.326C263.025 145.214 263.075 145.109 263.152 145.025C284.87 120.411 307.493 94.6905 331.022 67.8643C334.971 63.3828 340.466 59.1371 346.569 58.2723C357.246 56.7784 362.397 61.5273 366.799 70.1758C379.526 95.2618 392.211 120.185 404.855 144.946C405.167 145.575 404.975 145.89 404.278 145.89L306.874 145.921C306.735 145.921 306.599 145.881 306.482 145.804C306.365 145.727 306.273 145.618 306.217 145.49C306.161 145.362 306.143 145.22 306.165 145.081C306.188 144.943 306.25 144.814 306.343 144.71L324.529 124.473C324.774 124.196 325.076 123.974 325.415 123.822C325.754 123.671 326.122 123.592 326.495 123.592L361.273 123.687Z" fill="#383837"/>
<path d="M737.022 59.806C755.973 62.7167 770.19 72.4658 770.95 92.9343C772.074 123.027 754.295 139.802 725.592 144.778C711.438 147.23 696.963 147.653 682.165 146.046C664.719 144.152 646.56 137.486 643.061 119.412C640.591 106.663 642.433 94.6504 648.586 83.3729C663.294 56.3789 711.074 55.8156 737.022 59.806ZM674.962 87.6138C669.263 92.8404 668.74 104.264 669.548 111.196C670.497 119.224 678.366 122.62 685.458 123.449C693.775 124.419 702.625 124.691 712.008 124.263C724.278 123.684 739.999 122.682 742.674 108.896C745.461 94.5931 744.384 83.013 726.716 81.4169C715.486 80.4049 704.351 80.3684 693.311 81.3073C686.994 81.8394 679.711 83.2478 674.962 87.6138Z" fill="#383837"/>
<path d="M985.498 122.762L968.681 89.5462C968.641 89.4665 968.581 89.3982 968.508 89.3472C968.434 89.2961 968.348 89.2638 968.258 89.253C968.168 89.2422 968.076 89.2532 967.99 89.2851C967.903 89.317 967.826 89.3688 967.764 89.4362L918.482 144.916C917.839 145.639 917.032 146 916.062 146L886.651 145.984C886.526 145.985 886.404 145.949 886.299 145.883C886.194 145.816 886.11 145.72 886.058 145.607C886.007 145.494 885.989 145.369 886.007 145.247C886.025 145.124 886.078 145.009 886.16 144.916C908.847 119.556 931.608 94.0555 954.443 68.4133C958.445 63.9353 963.666 59.583 969.709 58.4832C981.607 56.2992 986.891 61.6885 991.795 71.2258C1005.57 98.0832 1018.28 122.735 1029.94 145.183C1029.98 145.267 1030 145.36 1030 145.454C1030 145.548 1029.97 145.64 1029.92 145.72C1029.87 145.8 1029.8 145.867 1029.72 145.913C1029.64 145.959 1029.54 145.984 1029.45 145.984L930.015 145.937C929.906 145.936 929.798 145.904 929.705 145.844C929.613 145.785 929.54 145.701 929.494 145.603C929.449 145.505 929.434 145.397 929.451 145.291C929.467 145.186 929.515 145.088 929.588 145.01L948.241 124.553C948.555 124.207 948.939 123.93 949.366 123.74C949.794 123.551 950.257 123.453 950.725 123.453L985.024 123.532C985.593 123.532 985.752 123.275 985.498 122.762Z" fill="#FF7300"/>
<path d="M438.218 109.545C436.814 117.432 441.151 121.643 448.502 122.994C459.985 125.089 471.284 125.23 482.4 123.418C494.246 121.501 497.369 114.321 499.183 103.276C501.517 88.9886 504.057 74.5652 506.801 60.0056C506.917 59.3771 507.296 59.0629 507.937 59.0629L532.796 59C532.973 58.9993 533.147 59.0375 533.308 59.1117C533.468 59.186 533.609 59.2946 533.722 59.4297C533.835 59.5648 533.917 59.723 533.961 59.8932C534.006 60.0634 534.012 60.2413 533.979 60.4141C531.592 72.795 529.147 86.3857 526.645 101.186C525.046 110.645 523.143 117.474 520.935 121.674C514.278 134.291 501.659 141.99 488.047 144.566C469.097 148.17 451.099 147.772 434.053 143.372C420.772 139.947 413.185 132.474 411.292 120.952C410.503 116.081 411.313 107.591 413.721 95.4828C416.034 83.877 418.127 72.0618 419.999 60.037C420.04 59.7831 420.171 59.552 420.367 59.385C420.564 59.2181 420.813 59.1262 421.072 59.1257H446.562C446.653 59.127 446.744 59.1476 446.827 59.1862C446.909 59.2249 446.983 59.2805 447.041 59.3493C447.1 59.4181 447.142 59.4984 447.166 59.5846C447.189 59.6708 447.193 59.7609 447.177 59.8485C444.296 75.6022 441.309 92.1677 438.218 109.545Z" fill="#383837"/>
<path d="M577.616 81.6867L538.525 81.7973C538.423 81.7984 538.322 81.769 538.236 81.7127C538.15 81.6565 538.083 81.5759 538.042 81.4812C538.002 81.3866 537.99 81.2819 538.009 81.1807C538.027 81.0794 538.076 80.9859 538.147 80.912L558.819 59.1581C558.868 59.1074 558.927 59.0673 558.992 59.0402C559.057 59.013 559.127 58.9993 559.197 59L656.475 59.0317C656.577 59.0306 656.678 59.06 656.764 59.1163C656.85 59.1726 656.918 59.2531 656.958 59.3478C656.998 59.4425 657.01 59.5471 656.991 59.6484C656.973 59.7497 656.924 59.8431 656.853 59.917L636.291 81.5761C636.242 81.6268 636.183 81.6668 636.118 81.694C636.053 81.7212 635.984 81.7349 635.913 81.7341L605.756 81.7183C605.633 81.7163 605.513 81.7581 605.418 81.8362C605.323 81.9144 605.259 82.0238 605.236 82.1452L594.018 145.573C593.996 145.694 593.931 145.804 593.836 145.882C593.741 145.96 593.621 146.002 593.498 146L567.516 145.937C567.441 145.936 567.366 145.918 567.298 145.885C567.23 145.852 567.169 145.805 567.121 145.746C567.073 145.687 567.039 145.619 567.02 145.545C567.001 145.472 566.998 145.395 567.012 145.32L578.12 82.3033C578.134 82.2286 578.131 82.1518 578.112 82.0782C578.093 82.0047 578.059 81.9362 578.011 81.8774C577.963 81.8187 577.903 81.7712 577.834 81.7383C577.766 81.7053 577.692 81.6877 577.616 81.6867Z" fill="#383837"/>
<path d="M899.075 59C900.111 59 900.277 59.3841 899.572 60.1524L880.278 81.0065C879.791 81.5328 879.19 81.7959 878.476 81.7959C863.759 81.7643 849.803 81.7643 836.609 81.7959C824.305 81.8117 811.395 88.5052 808.351 101.008C806.766 107.47 808.273 112.953 812.871 117.458C819.241 123.709 827.598 123.425 835.925 123.394C853.77 123.32 871.102 123.309 887.921 123.362C888.045 123.362 888.167 123.399 888.271 123.468C888.375 123.537 888.456 123.635 888.506 123.751C888.556 123.867 888.571 123.995 888.55 124.119C888.528 124.244 888.472 124.359 888.387 124.451L869.155 145.084C868.885 145.374 868.559 145.604 868.199 145.762C867.838 145.919 867.45 146 867.058 146C853.211 145.979 839.737 145.963 826.635 145.953C811.318 145.937 796.264 141.09 787.363 128.256C775.587 111.269 781.04 87.4948 796.466 74.4393C808.449 64.3148 822.519 59.2105 838.675 59.1263C857.358 59.0421 877.492 59 899.075 59Z" fill="#FF7300"/>
<path d="M1140.01 118.165C1147.8 126.843 1155.04 135.932 1161.73 145.431C1161.76 145.478 1161.78 145.534 1161.79 145.593C1161.79 145.651 1161.78 145.71 1161.75 145.762C1161.73 145.815 1161.69 145.859 1161.64 145.89C1161.59 145.921 1161.53 145.937 1161.47 145.937L1127.54 146C1127.17 146 1126.81 145.909 1126.49 145.736C1126.17 145.562 1125.89 145.311 1125.69 145.005L1111.75 123.789C1111.46 123.347 1111.05 123.126 1110.51 123.126L1071.37 123.157C1070.82 123.157 1070.51 123.431 1070.41 123.979L1066.74 145.289C1066.67 145.668 1066.45 145.863 1066.06 145.874L1040.92 145.968C1040.2 145.968 1039.9 145.61 1040.03 144.894L1047.4 102.273C1047.51 101.652 1047.88 101.341 1048.49 101.341C1071.65 101.299 1096.41 101.289 1122.78 101.31C1128.7 101.31 1136.94 98.8613 1138.46 92.2896C1140.4 83.9014 1132.08 81.7372 1125.77 81.7372C1099.88 81.7793 1075.33 81.7846 1052.11 81.753C1051.26 81.753 1051.13 81.4423 1051.72 80.821L1071.57 59.8898C1072.03 59.4158 1072.59 59.1736 1073.24 59.163C1092.1 58.984 1110.91 58.9524 1129.67 59.0683C1145.67 59.1631 1167.25 65.0554 1167 85.339C1166.79 101.499 1155.69 114.185 1140.27 117.36C1140.19 117.377 1140.11 117.416 1140.05 117.473C1139.98 117.53 1139.94 117.603 1139.91 117.685C1139.88 117.767 1139.88 117.854 1139.9 117.938C1139.91 118.023 1139.95 118.101 1140.01 118.165Z" fill="#FF7300"/>
</svg>
